<?xml version="1.0" encoding="iso-8859-1"?>
<!-- Generator: Adobe Illustrator 19.0.0, SVG Export Plug-In . SVG Version: 6.00 Build 0)  -->
<svg version="1.1" id="Layer_1" xmlns="http://www.w3.org/2000/svg" xmlns:xlink="http://www.w3.org/1999/xlink" x="0px" y="0px"
	 viewBox="0 0 512 512" style="enable-background:new 0 0 512 512;" xml:space="preserve">
<polyline style="fill:#666666;" points="160,441.6 160,386.928 352,386.928 352,435.2 "/>
<path style="fill:#25B6D2;" d="M480,346.128H32c-17.6,0-32-14.4-32-32v-256c0-17.6,14.4-32,32-32h448c17.6,0,32,14.4,32,32v256
	C512,331.728,497.6,346.128,480,346.128z"/>
<path style="fill:#FFFFFF;" d="M335.184,175.12h16.672c23.968,0,43.568,19.568,43.568,43.504v8.704
	c0,23.92-19.6,43.504-43.568,43.504H160.144c-23.968,0-43.568-19.568-43.568-43.504v-8.704c0-22.32,17.12-40.624,38.848-43.024
	c-0.432-3.008-0.72-6.048-0.72-9.184c0-35.728,29.024-64.704,64.816-64.704c27.488,0,50.928,17.104,60.352,41.216
	c0,0,14.528-6.672,32.688-0.24C335.12,150.688,335.184,175.12,335.184,175.12z"/>
<path d="M378.672,485.872H133.328c-13.936,0-25.328-11.392-25.328-25.328l0,0c0-13.936,11.392-25.328,25.328-25.328h245.328
	c13.936,0,25.328,11.392,25.328,25.328l0,0C404,474.464,392.608,485.872,378.672,485.872z"/>
<g>
</g>
<g>
</g>
<g>
</g>
<g>
</g>
<g>
</g>
<g>
</g>
<g>
</g>
<g>
</g>
<g>
</g>
<g>
</g>
<g>
</g>
<g>
</g>
<g>
</g>
<g>
</g>
<g>
</g>
</svg>
